<?xml version="1.0" encoding="utf-8"?>
<!-- Generator: Adobe Illustrator 16.0.3, SVG Export Plug-In . SVG Version: 6.00 Build 0)  -->
<!DOCTYPE svg PUBLIC "-//W3C//DTD SVG 1.1//EN" "http://www.w3.org/Graphics/SVG/1.1/DTD/svg11.dtd">
<svg version="1.1" id="Layer_1" xmlns="http://www.w3.org/2000/svg" xmlns:xlink="http://www.w3.org/1999/xlink" x="0px" y="0px"
	 width="363px" height="212px" viewBox="0 0 363 212" enable-background="new 0 0 363 212" xml:space="preserve">
<path opacity="0.5" fill="#DEDEDE" d="M79.254,98.046c3.837-1.485,6.898-2.67,10.209-3.952c0.892,1.711,1.701,3.264,2.906,5.578
	c1.096-5.508,3.379-9.424,8.429-11.259c5.026-1.826,9.09-0.248,13.208,3.232c1.178-5.848,3.875-10.259,9.721-12.056
	c5.997-1.841,11.818,0.124,14.246,5.826c4.691,11.021,8.957,22.228,13.133,33.455c0.391,1.051-0.709,3.521-1.788,4.114
	c-7.359,4.063-8.046,3.728-11.012-3.932c-2.885-7.449-5.756-14.902-8.658-22.345c-1.248-3.202-3.199-5.944-7.032-4.506
	c-3.867,1.451-4.916,4.78-3.506,8.624c3.093,8.436,6.043,16.939,9.562,25.199c2.143,5.031-1.271,5.461-4.314,6.817
	c-3.33,1.485-5.685,1.935-7.187-2.528c-2.494-7.408-5.524-14.638-8.411-21.908c-0.731-1.844-1.377-4.027-2.776-5.215
	c-1.549-1.315-4.238-2.673-5.836-2.16c-1.638,0.526-3.063,3.148-3.627,5.126c-0.438,1.536,0.38,3.569,1.006,5.245
	c2.853,7.641,5.579,15.347,8.866,22.801c2.011,4.564-0.196,5.813-3.8,7.082c-3.274,1.154-5.831,2.664-7.631-2.335
	C90.067,125.363,84.642,111.965,79.254,98.046z"/>
<path opacity="0.5" fill="#DEDEDE" d="M172.792,80.211c-1.075-3.58-2.269-7.341-6.979-6.928c-4.031,0.354-6.542,2.758-6.968,7.182
	c-0.116,1.203-1.463,2.793-2.631,3.282c-2.243,0.94-4.763,1.222-7.108,1.762c-3.029-6.19-0.545-13.645,6.449-17.9
	c3.487-2.122,7.526-3.68,11.521-4.546c7.496-1.625,12.893,1.576,15.902,8.752c1.674,3.992,2.875,8.203,4.783,12.07
	c2.344,4.742,5.201,9.228,8.453,14.9c-3.372,9.697-3.916,10.002-11.33,5.544c-3.609,3.247-6.638,7.139-10.61,9.294
	c-7.42,4.025-13.307,2.529-17.177-3.12c-4.873-7.114-4.493-15.523,1.658-20.798C162.87,86.179,167.763,83.56,172.792,80.211z
	 M175.821,86.426c-3.529,2.679-7.063,4.122-8.344,6.689c-1.233,2.473-0.814,6.358,0.221,9.12c0.502,1.342,5.114,2.776,6.042,1.997
	c2.135-1.793,4.042-4.805,4.381-7.529C178.476,93.853,176.89,90.76,175.821,86.426z"/>
<path opacity="0.5" fill="#DEDEDE" d="M64.059,122.754c-1.122-4.107-2.466-7.832-7.149-7.334c-4.244,0.45-6.855,3.002-6.829,7.758
	c0.005,0.905-1.28,2.312-2.254,2.635c-2.6,0.864-5.354,1.268-8.299,1.906c-1.564-5.91-0.36-10.64,3.388-14.697
	c4.497-4.869,10.296-7.319,16.739-8.021c7.093-0.774,11.379,1.913,14.117,8.51c2.234,5.386,4.013,10.974,6.478,16.244
	c1.28,2.738,3.258,5.407,5.565,7.336c2.178,1.819,2.582,3.185,1.012,5.339c-0.097,0.133-0.156,0.293-0.234,0.44
	c-3.844,7.366-3.844,7.366-10.619,3.623c-3.475,3.192-6.35,6.979-10.153,9.088c-7.565,4.196-13.842,2.751-17.679-2.957
	c-4.816-7.168-4.21-15.256,1.824-20.886c2.037-1.899,4.51-3.356,6.881-4.863C59.079,125.456,61.438,124.239,64.059,122.754z
	 M67.104,128.505c-3.624,2.724-6.564,4.302-8.634,6.65c-2.464,2.796-2.138,6.452,0.309,9.112c1.313,1.428,4.862,2.955,5.642,2.31
	c2.179-1.804,4.418-4.572,4.804-7.228C69.662,136.357,68.104,133.074,67.104,128.505z"/>
<path opacity="0.5" fill="#DEDEDE" d="M267.723,25.095c3.746-1.451,6.801-2.632,10.152-3.93c0.971,2.006,1.866,3.853,2.759,5.7
	c-0.397-0.216-0.796-0.431-1.194-0.646c1.604-2.457,2.996-5.09,4.854-7.337c5.739-6.943,16.664-5.713,20.62,2.921
	c4.912,10.717,8.849,21.887,12.974,32.949c0.345,0.921-0.802,2.829-1.774,3.692c-1.049,0.933-2.762,1.076-4.096,1.742
	c-3.063,1.528-4.726,0.792-5.924-2.576c-2.843-7.988-6.023-15.858-9.131-23.75c-1.436-3.648-3.006-7.475-8.068-6.186
	c-3.379,0.86-4.817,5.397-3.08,10.319c2.821,7.996,5.733,15.981,9.121,23.748c2.026,4.647-0.754,5.468-3.904,6.551
	c-2.852,0.98-5.561,3.206-7.395-1.818C278.626,52.751,273.18,39.191,267.723,25.095z"/>
<path opacity="0.5" fill="#DEDEDE" d="M231.453,64.093c-0.439-4.712-1.516-9.802-1.239-14.817
	c0.396-7.169,4.356-12.382,11.127-15.202c6.892-2.871,13.49-2.248,19.149,2.629c8.729,7.52,12.842,17.22,11.646,28.763
	c-0.805,7.774-5.179,13.28-12.56,15.882c-7.668,2.702-14.583,0.709-19.932-5.214C236.589,72.751,234.436,68.554,231.453,64.093z
	 M244.059,59.448c1.924,3.473,3.239,7.06,5.609,9.696c1.57,1.746,4.766,3.142,7.036,2.893c3.571-0.39,4.719-4.137,3.796-7.012
	c-2.213-6.887-4.855-13.695-8.077-20.159c-0.797-1.604-4.845-2.925-6.687-2.294c-1.834,0.629-3.852,3.865-3.867,5.972
	C241.842,52.245,243.281,55.956,244.059,59.448z"/>
<path opacity="0.5" fill="#DEDEDE" d="M222.732,110.766c-8.648,16.35-22.116,27.291-37.674,35.65
	c-29.899,16.068-60.95,17.507-92.829,5.816C141.945,158.131,185.266,144.002,222.732,110.766z"/>
<path opacity="0.5" fill="#DEDEDE" d="M218.333,44.405c2.752,3.97,3.375,7.822,2.043,12.397c-2.209,7.598-3.813,15.371-5.769,23.463
	c3.511-0.792,6.334-1.628,9.222-2.044c8.799-1.268,10.146-0.181,12.188,9.896c-11.949-0.36-22.603,2.857-31.215,12.577
	c-3.197-4.887-5.273-9.189-3.853-14.701c2.269-8.799,4.308-17.656,6.702-27.558c-5.658,2.19-10.377,4.017-15.414,5.966
	c-1.211-3.128-2.197-5.678-3.331-8.608C198.559,52.06,208.246,48.31,218.333,44.405z"/>
<path opacity="0.5" fill="#DEDEDE" d="M231.297,123.109c-0.419-5.83-0.587-10.439-1.119-15.006c-0.623-5.329-2.35-6.746-7.639-5.363
	c-4.684,1.224-9.114,3.403-14.346,5.429c5.541-6.653,11.791-10.902,19.904-11.617c1.504-0.132,4.084,1.481,4.647,2.896
	C235.77,107.025,235.124,114.605,231.297,123.109z"/>
</svg>
